<svg width="16" height="16" viewBox="0 0 16 16" fill="none" xmlns="http://www.w3.org/2000/svg">
<path d="M6.76724 11.7755C6.91632 11.6333 7 11.441 7 11.2405C7 11.04 6.91632 10.8477 6.76724 10.7055L3.93369 7.98103L6.76724 5.29453C6.91632 5.15234 7 4.95999 7 4.7595C7 4.55901 6.91632 4.36667 6.76724 4.22448C6.69283 4.15335 6.6043 4.09689 6.50676 4.05836C6.40922 4.01984 6.3046 4 6.19893 4C6.09326 4 5.98864 4.01984 5.8911 4.05836C5.79356 4.09689 5.70503 4.15335 5.63062 4.22448L2.23677 7.44221C2.16174 7.51276 2.1022 7.59669 2.06156 7.68917C2.02092 7.78165 2 7.88084 2 7.98103C2 8.08121 2.02092 8.1804 2.06156 8.27288C2.1022 8.36536 2.16174 8.4493 2.23677 8.51984L5.63062 11.7755C5.70503 11.8466 5.79356 11.9031 5.8911 11.9416C5.98864 11.9802 6.09326 12 6.19893 12C6.3046 12 6.40922 11.9802 6.50676 11.9416C6.6043 11.9031 6.69283 11.8466 6.76724 11.7755Z" fill="#1A1A1A"/>
<path d="M12.7672 11.7755C12.9163 11.6333 13 11.441 13 11.2405C13 11.04 12.9163 10.8477 12.7672 10.7055L9.93369 7.98103L12.7672 5.29453C12.9163 5.15234 13 4.95999 13 4.7595C13 4.55901 12.9163 4.36667 12.7672 4.22448C12.6928 4.15335 12.6043 4.09689 12.5068 4.05836C12.4092 4.01984 12.3046 4 12.1989 4C12.0933 4 11.9886 4.01984 11.8911 4.05836C11.7936 4.09689 11.705 4.15335 11.6306 4.22448L8.23677 7.44221C8.16174 7.51276 8.1022 7.59669 8.06156 7.68917C8.02092 7.78165 8 7.88084 8 7.98103C8 8.08121 8.02092 8.1804 8.06156 8.27288C8.1022 8.36536 8.16174 8.4493 8.23677 8.51984L11.6306 11.7755C11.705 11.8466 11.7936 11.9031 11.8911 11.9416C11.9886 11.9802 12.0933 12 12.1989 12C12.3046 12 12.4092 11.9802 12.5068 11.9416C12.6043 11.9031 12.6928 11.8466 12.7672 11.7755Z" fill="#1A1A1A"/>
</svg>
