<svg width="16" height="16" viewBox="0 0 16 16" fill="none" xmlns="http://www.w3.org/2000/svg">
<path d="M8.23276 11.7755C8.08368 11.6333 8 11.441 8 11.2405C8 11.04 8.08368 10.8477 8.23276 10.7055L11.0663 7.98103L8.23276 5.29453C8.08368 5.15234 8 4.95999 8 4.7595C8 4.55901 8.08368 4.36667 8.23276 4.22448C8.30717 4.15335 8.3957 4.09689 8.49324 4.05836C8.59078 4.01984 8.6954 4 8.80107 4C8.90674 4 9.01136 4.01984 9.1089 4.05836C9.20644 4.09689 9.29497 4.15335 9.36938 4.22448L12.7632 7.44221C12.8383 7.51276 12.8978 7.59669 12.9384 7.68917C12.9791 7.78165 13 7.88084 13 7.98103C13 8.08121 12.9791 8.1804 12.9384 8.27288C12.8978 8.36536 12.8383 8.4493 12.7632 8.51984L9.36938 11.7755C9.29497 11.8466 9.20644 11.9031 9.1089 11.9416C9.01136 11.9802 8.90674 12 8.80107 12C8.6954 12 8.59078 11.9802 8.49324 11.9416C8.3957 11.9031 8.30717 11.8466 8.23276 11.7755Z" fill="#1A1A1A"/>
<path d="M2.23276 11.7755C2.08368 11.6333 2 11.441 2 11.2405C2 11.04 2.08368 10.8477 2.23276 10.7055L5.06631 7.98103L2.23276 5.29453C2.08368 5.15234 2 4.95999 2 4.7595C2 4.55901 2.08368 4.36667 2.23276 4.22448C2.30717 4.15335 2.3957 4.09689 2.49324 4.05836C2.59078 4.01984 2.6954 4 2.80107 4C2.90674 4 3.01136 4.01984 3.1089 4.05836C3.20644 4.09689 3.29497 4.15335 3.36938 4.22448L6.76323 7.44221C6.83826 7.51276 6.8978 7.59669 6.93844 7.68917C6.97908 7.78165 7 7.88084 7 7.98103C7 8.08121 6.97908 8.1804 6.93844 8.27288C6.8978 8.36536 6.83826 8.4493 6.76323 8.51984L3.36938 11.7755C3.29497 11.8466 3.20644 11.9031 3.1089 11.9416C3.01136 11.9802 2.90674 12 2.80107 12C2.6954 12 2.59078 11.9802 2.49324 11.9416C2.3957 11.9031 2.30717 11.8466 2.23276 11.7755Z" fill="#1A1A1A"/>
</svg>
