<svg width="16" height="16" viewBox="0 0 16 16" fill="none" xmlns="http://www.w3.org/2000/svg">
<path d="M6.23276 11.7755C6.08368 11.6333 6 11.441 6 11.2405C6 11.04 6.08368 10.8477 6.23276 10.7055L9.06631 7.98103L6.23276 5.29453C6.08368 5.15234 6 4.95999 6 4.7595C6 4.55901 6.08368 4.36667 6.23276 4.22448C6.30717 4.15335 6.3957 4.09689 6.49324 4.05836C6.59078 4.01984 6.6954 4 6.80107 4C6.90674 4 7.01136 4.01984 7.1089 4.05836C7.20644 4.09689 7.29497 4.15335 7.36938 4.22448L10.7632 7.44221C10.8383 7.51276 10.8978 7.59669 10.9384 7.68917C10.9791 7.78165 11 7.88084 11 7.98103C11 8.08121 10.9791 8.1804 10.9384 8.27288C10.8978 8.36536 10.8383 8.4493 10.7632 8.51984L7.36938 11.7755C7.29497 11.8466 7.20644 11.9031 7.1089 11.9416C7.01136 11.9802 6.90674 12 6.80107 12C6.6954 12 6.59078 11.9802 6.49324 11.9416C6.3957 11.9031 6.30717 11.8466 6.23276 11.7755Z" fill="#1A1A1A"/>
</svg>
