<svg width="16" height="16" viewBox="0 0 16 16" fill="none" xmlns="http://www.w3.org/2000/svg">
<path d="M10.7672 11.7755C10.9163 11.6333 11 11.441 11 11.2405C11 11.04 10.9163 10.8477 10.7672 10.7055L7.93369 7.98103L10.7672 5.29453C10.9163 5.15234 11 4.95999 11 4.7595C11 4.55901 10.9163 4.36667 10.7672 4.22448C10.6928 4.15335 10.6043 4.09689 10.5068 4.05836C10.4092 4.01984 10.3046 4 10.1989 4C10.0933 4 9.98864 4.01984 9.8911 4.05836C9.79356 4.09689 9.70503 4.15335 9.63062 4.22448L6.23677 7.44221C6.16174 7.51276 6.1022 7.59669 6.06156 7.68917C6.02092 7.78165 6 7.88084 6 7.98103C6 8.08121 6.02092 8.1804 6.06156 8.27288C6.1022 8.36536 6.16174 8.4493 6.23677 8.51984L9.63062 11.7755C9.70503 11.8466 9.79356 11.9031 9.8911 11.9416C9.98864 11.9802 10.0933 12 10.1989 12C10.3046 12 10.4092 11.9802 10.5068 11.9416C10.6043 11.9031 10.6928 11.8466 10.7672 11.7755Z" fill="#1A1A1A"/>
</svg>
